<?xml version="1.0" encoding="UTF-8"?>
<svg id="Capa_1" data-name="Capa 1" xmlns="http://www.w3.org/2000/svg" viewBox="0 0 1667.33 258.18">
  <defs>
    <style>
      .cls-1 {
        fill: #60efa4;
      }
    </style>
  </defs>
  <path class="cls-1" d="M77.31,51.54h154.62c14.23,0,25.77-11.54,25.77-25.77h0c0-14.23-11.54-25.77-25.77-25.77H77.31c-14.23,0-25.77,11.54-25.77,25.77h0c0,14.23-11.54,25.77-25.77,25.77S0,63.08,0,77.31h0v51.54h0c0,14.23,11.54,25.77,25.77,25.77h154.62c14.23,0,25.77,11.54,25.77,25.77h0c0,14.23-11.54,25.77-25.77,25.77H25.77c-14.23,0-25.77,11.54-25.77,25.77h0c0,14.23,11.54,25.77,25.77,25.77h154.62c14.23,0,25.77-11.54,25.77-25.77h0c0-14.23,11.54-25.77,25.77-25.77s25.77-11.54,25.77-25.77h0v-51.54h0c0-14.23-11.54-25.77-25.77-25.77H77.31c-14.23,0-25.77-11.54-25.77-25.77h0c0-14.23,11.54-25.77,25.77-25.77Z"/>
  <path class="cls-1" d="M341.06,70.67c.03-.1.05-.2.08-.3.17-.62.37-1.23.59-1.83.05-.13.09-.26.14-.39.22-.58.46-1.15.72-1.7.06-.14.13-.28.2-.41.27-.55.55-1.08.85-1.61.07-.13.15-.25.23-.38.32-.53.64-1.04,1-1.55.06-.09.13-.17.2-.26,1.18-1.64,2.55-3.13,4.08-4.45.08-.07.15-.14.22-.2.36-.3.74-.58,1.11-.86.26-.19.51-.39.77-.57.34-.24.7-.46,1.05-.68.32-.2.64-.4.97-.59.34-.19.68-.37,1.03-.55.37-.19.74-.37,1.11-.54.34-.15.68-.3,1.02-.43.41-.16.82-.31,1.24-.45.33-.11.67-.23,1.01-.33.45-.13.92-.25,1.38-.36.32-.07.64-.16.96-.22.53-.1,1.07-.18,1.61-.25.27-.04.54-.08.82-.11.82-.08,1.65-.13,2.5-.13h154.62c14.23,0,25.77-11.54,25.77-25.77h0c0-14.23-11.54-25.77-25.77-25.77h-154.62c-14.23,0-25.77,11.54-25.77,25.77h0c0,14.23-11.54,25.77-25.77,25.77s-25.77,11.54-25.77,25.77h0v103.08h0c0,14.23,11.54,25.77,25.77,25.77s25.77,11.54,25.77,25.77h0c0,14.23,11.54,25.77,25.77,25.77h154.62c14.23,0,25.77-11.54,25.77-25.77h0c0-14.23-11.54-25.77-25.77-25.77h-154.62c-14.23,0-25.77-11.54-25.77-25.77h0c0-.05,0-.1,0-.15l.02-.02c.09-14.15,11.59-25.6,25.76-25.6h103.08c14.23,0,25.77-11.54,25.77-25.77h0c0-14.23-11.54-25.77-25.77-25.77h-103.08c-14.23,0-25.77-11.54-25.77-25.77h0c0-2.3.33-4.52.9-6.64Z"/>
  <path class="cls-1" d="M815.63,25.77h0c0-14.23-11.54-25.77-25.77-25.77h-154.62c-14.23,0-25.77,11.54-25.77,25.77h0c0,14.23-11.54,25.77-25.77,25.77s-25.77,11.54-25.77,25.77h0v103.08h0c0,14.23,11.54,25.77,25.77,25.77s25.77,11.54,25.77,25.77h0c0,14.23,11.54,25.77,25.77,25.77h154.62c14.23,0,25.77-11.54,25.77-25.77h0c0-14.23-11.54-25.77-25.77-25.77h-154.62c-14.23,0-25.77-11.54-25.77-25.77h0c0-.05,0-.1,0-.15h0v-102.93h0c0-2.3.33-4.52.9-6.64.03-.1.05-.2.08-.3.17-.62.37-1.23.59-1.83.05-.13.09-.26.14-.39.22-.58.46-1.15.72-1.7.06-.14.13-.28.2-.41.27-.55.55-1.08.85-1.61.07-.13.15-.25.23-.38.32-.53.64-1.04,1-1.55.06-.09.13-.17.2-.26,1.18-1.64,2.55-3.13,4.08-4.45.08-.07.15-.14.22-.2.36-.3.74-.58,1.11-.86.26-.19.51-.39.77-.57.34-.24.7-.46,1.05-.68.32-.2.64-.4.97-.59.34-.19.68-.37,1.03-.55.37-.19.74-.37,1.11-.54.34-.15.68-.3,1.02-.43.41-.16.82-.31,1.24-.45.33-.11.67-.23,1.01-.33.45-.13.92-.25,1.38-.36.32-.07.64-.16.96-.22.53-.1,1.07-.18,1.61-.25.27-.04.54-.08.82-.11.82-.08,1.65-.13,2.5-.13h154.62c14.23,0,25.77-11.54,25.77-25.77Z"/>
  <path class="cls-1" d="M1641.56,0h-206.16c-14.23,0-25.77,11.54-25.77,25.77h0c0,14.23,11.54,25.77,25.77,25.77h51.54c14.23,0,25.77,11.54,25.77,25.77h0v154.62h0c0,14.23,11.54,25.77,25.77,25.77s25.77-11.54,25.77-25.77h0c0-1.06-.08-2.09-.21-3.11V77.31l.22-.22c.12-14.06,11.48-25.42,25.54-25.54l.11-.11h49.6c.68.05,1.35.1,2.04.1,14.23,0,25.77-11.54,25.77-25.77h0c0-14.23-11.54-25.77-25.77-25.77Z"/>
  <path class="cls-1" d="M1366,51.74c-14.23,0-25.77-11.54-25.77-25.77h0c0-14.23-11.54-25.77-25.77-25.77h-103.08c-14.23,0-25.77,11.54-25.77,25.77h0c0,14.23-11.54,25.77-25.77,25.77s-25.77,11.54-25.77,25.77h0v154.62h0c0,14.23,11.54,25.77,25.77,25.77s25.77-11.54,25.77-25.77h0v-51.54h0c0-14.23,11.54-25.77,25.77-25.77h103.08c14.23,0,25.77,11.54,25.77,25.77h0v51.54h0c0,14.23,11.54,25.77,25.77,25.77s25.77-11.54,25.77-25.77h0V77.51h0c0-14.23-11.54-25.77-25.77-25.77ZM1340.23,77.51c0,14.23-11.54,25.77-25.77,25.77h-103.08c-14.23,0-25.77-11.54-25.77-25.77h0c0-14.23,11.54-25.77,25.77-25.77h103.08c14.23,0,25.77,11.54,25.77,25.77h0Z"/>
  <path class="cls-1" d="M1075.48.48c-14.23,0-25.77,11.54-25.77,25.77h0v51.54h0c0,14.23-11.54,25.77-25.77,25.77h-103.08c-14.23,0-25.77-11.54-25.77-25.77h0s-.09-.09-.09-.09V28.03c.04-.59.09-1.18.09-1.79h0c0-14.23-11.54-25.77-25.77-25.77s-25.77,11.54-25.77,25.77h0v206.16h0c0,14.23,11.54,25.77,25.77,25.77s25.77-11.54,25.77-25.77h0v-51.54h0c0-14.23,11.54-25.77,25.77-25.77.43,0,.85-.04,1.27-.06h24.5v.06h77.31c14.23,0,25.77,11.54,25.77,25.77h0v51.54h0c0,14.23,11.54,25.77,25.77,25.77s25.77-11.54,25.77-25.77h0v-51.54h0c0-14.23-11.54-25.77-25.77-25.77-.04,0-.08,0-.12,0h-.01c-14.12-.09-25.55-11.52-25.63-25.64h-.01c0-.05,0-.09,0-.14h0s0-.08,0-.12h.01c.07-14.14,11.5-25.57,25.63-25.64h.01s.08,0,.12,0c14.23,0,25.77-11.54,25.77-25.77h0V26.25h0c0-14.23-11.54-25.77-25.77-25.77Z"/>
</svg>